<?xml version="1.0" encoding="utf-8"?>
<svg version="1.0" width="569.000000pt" height="210.000000pt" viewBox="0 0 569.000000 210.000000" preserveAspectRatio="xMidYMid meet" xmlns="http://www.w3.org/2000/svg">
  <g transform="translate(0.000000,210.000000) scale(0.100000,-0.100000)" fill="#000000" stroke="none">
    <path d="M1654 1970 c-254 -46 -449 -237 -499 -489 -22 -106 -14 -194 26 -315 70 -209 255 -507 503 -811 32 -38 61 -71 66 -73 17 -6 241 282 360 464 79 120 187 333 221 434 33 100 37 243 9 347 -54 202 -217 368 -420 427 -68 20 -199 28 -266 16z m241 -45 c265 -67 455 -329 432 -594 -12 -143 -100 -342 -254 -576 -77 -117 -215 -303 -291 -394 l-29 -34 -64 77 c-231 281 -420 591 -483 794 -20 64 -26 104 -26 176 0 162 50 278 169 396 122 121 233 168 396 169 51 1 117 -6 150 -14z" style="fill: rgb(229, 231, 235);"/>
    <path d="M1640 1715 c-108 -34 -205 -134 -236 -243 -21 -72 -15 -189 15 -255 30 -70 110 -149 184 -183 54 -25 73 -29 152 -28 100 1 156 19 227 75 77 62 138 186 138 282 -1 138 -83 270 -210 333 -45 23 -71 28 -140 31 -55 2 -101 -2 -130 -12z m254 -49 c72 -35 149 -119 172 -188 9 -30 17 -81 16 -121 -1 -205 -205 -363 -403 -313 -107 28 -181 88 -228 186 -22 46 -26 69 -26 140 0 73 4 92 27 136 50 95 111 147 211 180 64 21 165 12 231 -20z" style="fill: rgb(229, 231, 235);"/>
    <path d="M1806 1578 c30 -40 84 -133 120 -205 36 -73 69 -133 74 -133 11 0 22 32 13 39 -4 3 -28 48 -53 100 -46 96 -122 222 -154 254 -10 9 -26 17 -36 17 -15 0 -8 -14 36 -72z" style="fill: rgb(229, 231, 235);"/>
    <path d="M1486 1280 c8 -8 61 -13 155 -16 183 -6 157 12 -32 21 -105 6 -132 5 -123 -5z" style="fill: rgb(229, 231, 235);"/>
    <path d="M3470 1787 c-15 -8 -29 -27 -36 -52 -16 -50 -18 -405 -4 -457 13 -47 43 -68 96 -68 91 0 108 57 102 335 -4 205 -13 238 -69 249 -45 9 -61 7 -89 -7z m95 -111 c4 -25 5 -120 4 -211 -4 -149 -6 -168 -23 -180 -26 -20 -54 -3 -61 38 -4 18 -5 112 -3 210 3 161 5 180 22 192 29 22 54 2 61 -49z" style="fill: rgb(229, 231, 235);"/>
    <path d="M1030 1779 c-125 -13 -222 -37 -290 -71 -83 -42 -145 -122 -233 -298 -34 -69 -63 -127 -64 -129 -1 -2 -14 6 -29 18 -23 18 -40 21 -115 21 -76 0 -92 -3 -109 -20 -33 -33 -26 -68 25 -117 l46 -43 -30 -38 c-63 -78 -76 -172 -42 -305 26 -98 57 -170 98 -224 33 -43 33 -44 33 -153 0 -155 -6 -150 204 -150 211 0 205 -4 208 140 l3 105 379 3 c333 2 377 4 366 17 -11 13 -88 15 -565 15 l-553 0 -30 25 c-53 45 -110 188 -127 320 -13 94 24 173 108 235 l47 35 -37 8 c-64 12 -93 29 -109 59 -24 46 -6 58 83 58 66 0 77 -3 99 -25 45 -45 58 -36 118 88 64 134 143 255 194 297 21 17 71 41 114 55 68 21 122 29 355 51 32 3 53 11 57 20 4 11 -7 14 -62 13 -37 -1 -101 -5 -142 -10z m-335 -1364 l0 -100 -164 -3 c-125 -2 -166 1 -173 10 -9 16 -11 182 -1 192 4 3 81 5 172 4 l166 -3 0 -100z" style="fill: rgb(229, 231, 235);"/>
    <path d="M2526 1758 c-3 -18 -15 -130 -26 -248 -11 -118 -22 -232 -25 -252 -5 -37 -4 -38 25 -38 33 0 38 10 42 95 3 48 4 50 35 53 37 4 41 -5 45 -93 3 -49 4 -50 36 -53 l33 -3 -5 43 c-3 24 -15 147 -27 273 -11 127 -22 236 -24 243 -3 7 -23 12 -54 12 -49 0 -50 -1 -55 -32z m70 -145 c12 -162 11 -177 -10 -181 -10 -2 -22 0 -28 6 -11 11 11 272 23 272 4 0 11 -44 15 -97z" style="fill: rgb(229, 231, 235);"/>
    <path d="M2797 1784 c-10 -11 -8 -452 3 -499 12 -54 40 -75 102 -75 39 0 54 5 73 25 l25 24 0 266 0 266 -27 -3 -28 -3 -3 -247 c-2 -235 -3 -248 -22 -258 -14 -8 -26 -8 -40 0 -19 10 -20 23 -22 258 l-3 247 -25 3 c-14 2 -29 0 -33 -4z" style="fill: rgb(229, 231, 235);"/>
    <path d="M3120 1755 c0 -33 2 -35 35 -35 l35 0 0 -250 0 -250 30 0 30 0 0 249 0 250 33 3 c28 3 32 7 35 36 l3 32 -100 0 -101 0 0 -35z" style="fill: rgb(229, 231, 235);"/>
    <path d="M855 1288 c-231 -15 -220 -28 20 -22 121 4 222 8 224 9 1 2 0 8 -4 14 -7 12 -50 12 -240 -1z" style="fill: rgb(229, 231, 235);"/>
    <path d="M2537 1129 c-41 -24 -52 -68 -52 -199 1 -154 6 -166 111 -240 91 -65 99 -83 91 -205 -5 -66 -9 -83 -27 -97 -28 -23 -42 -23 -70 0 -20 16 -23 28 -24 100 l-1 82 -37 0 c-35 0 -37 -2 -43 -40 -9 -51 3 -157 21 -192 24 -47 56 -61 129 -56 111 7 135 51 135 253 0 142 -7 159 -95 214 -105 66 -105 67 -105 172 0 50 5 99 10 110 12 22 74 27 87 7 4 -7 10 -47 13 -88 l5 -75 35 0 c33 0 35 2 41 40 4 22 3 71 -1 110 -12 96 -34 115 -133 115 -40 0 -80 -5 -90 -11z" style="fill: rgb(229, 231, 235);"/>
    <path d="M3480 1112 c-45 -46 -52 -105 -48 -434 3 -247 6 -299 20 -330 23 -52 65 -71 146 -66 55 4 68 8 88 31 13 15 28 44 34 65 15 54 24 429 12 558 -16 175 -38 204 -158 204 -58 0 -69 -3 -94 -28z m150 -97 c11 -24 14 -81 13 -301 0 -306 -4 -327 -61 -332 -56 -6 -62 24 -62 333 0 309 6 339 62 333 25 -2 36 -10 48 -33z" style="fill: rgb(229, 231, 235);"/>
    <path d="M2952 713 l3 -418 45 0 45 0 5 135 5 135 68 5 c77 6 99 22 117 88 28 106 20 355 -14 420 -22 42 -55 52 -172 52 l-104 0 2 -417z m174 319 c27 -17 34 -56 34 -177 0 -87 -4 -136 -14 -160 -14 -32 -19 -35 -55 -35 l-41 0 0 183 c0 101 3 187 7 190 9 9 55 9 69 -1z" style="fill: rgb(229, 231, 235);"/>
    <path d="M3880 1086 l0 -45 48 -3 47 -3 5 -370 5 -370 43 -3 42 -3 0 369 c0 412 -6 382 71 382 l39 0 0 45 0 45 -150 0 -150 0 0 -44z" style="fill: rgb(229, 231, 235);"/>
    <path d="M4320 1085 l0 -45 39 0 c77 0 71 30 71 -382 l0 -369 43 3 42 3 5 370 5 370 48 3 47 3 0 45 0 44 -150 0 -150 0 0 -45z" style="fill: rgb(229, 231, 235);"/>
    <path d="M4792 713 l3 -418 123 -3 122 -3 0 50 0 50 -77 3 -78 3 -3 137 -3 138 81 0 80 0 0 45 0 45 -64 0 c-101 0 -96 -7 -96 140 0 147 -5 140 101 140 l69 0 0 45 0 45 -130 0 -130 0 2 -417z" style="fill: rgb(229, 231, 235);"/>
    <path d="M5232 713 l3 -418 42 -3 43 -3 2 178 3 178 31 3 c59 6 67 -17 80 -223 8 -137 7 -135 61 -135 l45 0 -7 88 c-12 169 -26 267 -42 291 -14 21 -14 25 0 33 29 16 42 79 42 203 -1 99 -4 127 -20 160 -28 56 -52 65 -178 65 l-107 0 2 -417z m188 307 c18 -18 20 -33 20 -129 0 -130 -11 -153 -76 -155 l-39 -1 -3 140 c-1 76 0 145 2 152 8 21 73 16 96 -7z" style="fill: rgb(229, 231, 235);"/>
    <path d="M382 994 c-41 -34 -50 -139 -16 -205 38 -77 307 -108 381 -45 53 46 26 116 -71 180 -110 73 -249 106 -294 70z m121 -29 c78 -20 148 -57 196 -103 48 -46 52 -74 14 -99 -37 -25 -178 -24 -251 1 -66 22 -84 53 -80 134 3 49 6 58 28 69 31 16 25 16 93 -2z" style="fill: rgb(229, 231, 235);"/>
    <path d="M2258 895 c-10 -22 -25 -69 -33 -105 -20 -79 -68 -180 -101 -211 -13 -12 -40 -25 -60 -28 -51 -8 -55 -29 -7 -33 l38 -3 3 -80 c5 -132 12 -125 -126 -125 -112 0 -142 -7 -142 -32 0 -4 59 -8 130 -8 172 0 170 -1 170 151 0 107 1 111 30 147 16 20 41 62 55 93 31 70 67 209 63 246 -3 27 -4 27 -20 -12z" style="fill: rgb(229, 231, 235);"/>
  </g>
</svg>