<?xml version="1.0"?>
<svg width="569" height="210" xmlns="http://www.w3.org/2000/svg" xmlns:svg="http://www.w3.org/2000/svg" preserveAspectRatio="xMidYMid meet" version="1.0">
 <g class="layer">
  <title>Layer 1</title>
  <g fill="#000000" id="svg_1" transform="translate(0 210) matrix(0.1 0 0 -0.1 0 0)">
   <path d="m1654,1970c-254,-46 -449,-237 -499,-489c-22,-106 -14,-194 26,-315c70,-209 255,-507 503,-811c32,-38 61,-71 66,-73c17,-6 241,282 360,464c79,120 187,333 221,434c33,100 37,243 9,347c-54,202 -217,368 -420,427c-68,20 -199,28 -266,16zm241,-45c265,-67 455,-329 432,-594c-12,-143 -100,-342 -254,-576c-77,-117 -215,-303 -291,-394l-29,-34l-64,77c-231,281 -420,591 -483,794c-20,64 -26,104 -26,176c0,162 50,278 169,396c122,121 233,168 396,169c51,1 117,-6 150,-14z" id="svg_2"/>
   <path d="m1640,1715c-108,-34 -205,-134 -236,-243c-21,-72 -15,-189 15,-255c30,-70 110,-149 184,-183c54,-25 73,-29 152,-28c100,1 156,19 227,75c77,62 138,186 138,282c-1,138 -83,270 -210,333c-45,23 -71,28 -140,31c-55,2 -101,-2 -130,-12zm254,-49c72,-35 149,-119 172,-188c9,-30 17,-81 16,-121c-1,-205 -205,-363 -403,-313c-107,28 -181,88 -228,186c-22,46 -26,69 -26,140c0,73 4,92 27,136c50,95 111,147 211,180c64,21 165,12 231,-20z" id="svg_3"/>
   <path d="m1806,1578c30,-40 84,-133 120,-205c36,-73 69,-133 74,-133c11,0 22,32 13,39c-4,3 -28,48 -53,100c-46,96 -122,222 -154,254c-10,9 -26,17 -36,17c-15,0 -8,-14 36,-72z" id="svg_4"/>
   <path d="m1486,1280c8,-8 61,-13 155,-16c183,-6 157,12 -32,21c-105,6 -132,5 -123,-5z" id="svg_5"/>
   <path d="m3470,1787c-15,-8 -29,-27 -36,-52c-16,-50 -18,-405 -4,-457c13,-47 43,-68 96,-68c91,0 108,57 102,335c-4,205 -13,238 -69,249c-45,9 -61,7 -89,-7zm95,-111c4,-25 5,-120 4,-211c-4,-149 -6,-168 -23,-180c-26,-20 -54,-3 -61,38c-4,18 -5,112 -3,210c3,161 5,180 22,192c29,22 54,2 61,-49z" id="svg_6"/>
   <path d="m1030,1779c-125,-13 -222,-37 -290,-71c-83,-42 -145,-122 -233,-298c-34,-69 -63,-127 -64,-129c-1,-2 -14,6 -29,18c-23,18 -40,21 -115,21c-76,0 -92,-3 -109,-20c-33,-33 -26,-68 25,-117l46,-43l-30,-38c-63,-78 -76,-172 -42,-305c26,-98 57,-170 98,-224c33,-43 33,-44 33,-153c0,-155 -6,-150 204,-150c211,0 205,-4 208,140l3,105l379,3c333,2 377,4 366,17c-11,13 -88,15 -565,15l-553,0l-30,25c-53,45 -110,188 -127,320c-13,94 24,173 108,235l47,35l-37,8c-64,12 -93,29 -109,59c-24,46 -6,58 83,58c66,0 77,-3 99,-25c45,-45 58,-36 118,88c64,134 143,255 194,297c21,17 71,41 114,55c68,21 122,29 355,51c32,3 53,11 57,20c4,11 -7,14 -62,13c-37,-1 -101,-5 -142,-10zm-335,-1364l0,-100l-164,-3c-125,-2 -166,1 -173,10c-9,16 -11,182 -1,192c4,3 81,5 172,4l166,-3l0,-100z" id="svg_7"/>
   <path d="m2526,1758c-3,-18 -15,-130 -26,-248c-11,-118 -22,-232 -25,-252c-5,-37 -4,-38 25,-38c33,0 38,10 42,95c3,48 4,50 35,53c37,4 41,-5 45,-93c3,-49 4,-50 36,-53l33,-3l-5,43c-3,24 -15,147 -27,273c-11,127 -22,236 -24,243c-3,7 -23,12 -54,12c-49,0 -50,-1 -55,-32zm70,-145c12,-162 11,-177 -10,-181c-10,-2 -22,0 -28,6c-11,11 11,272 23,272c4,0 11,-44 15,-97z" id="svg_8"/>
   <path d="m2797,1784c-10,-11 -8,-452 3,-499c12,-54 40,-75 102,-75c39,0 54,5 73,25l25,24l0,266l0,266l-27,-3l-28,-3l-3,-247c-2,-235 -3,-248 -22,-258c-14,-8 -26,-8 -40,0c-19,10 -20,23 -22,258l-3,247l-25,3c-14,2 -29,0 -33,-4z" id="svg_9"/>
   <path d="m3120,1755c0,-33 2,-35 35,-35l35,0l0,-250l0,-250l30,0l30,0l0,249l0,250l33,3c28,3 32,7 35,36l3,32l-100,0l-101,0l0,-35z" id="svg_10"/>
   <path d="m855,1288c-231,-15 -220,-28 20,-22c121,4 222,8 224,9c1,2 0,8 -4,14c-7,12 -50,12 -240,-1z" id="svg_11"/>
   <path d="m2537,1129c-41,-24 -52,-68 -52,-199c1,-154 6,-166 111,-240c91,-65 99,-83 91,-205c-5,-66 -9,-83 -27,-97c-28,-23 -42,-23 -70,0c-20,16 -23,28 -24,100l-1,82l-37,0c-35,0 -37,-2 -43,-40c-9,-51 3,-157 21,-192c24,-47 56,-61 129,-56c111,7 135,51 135,253c0,142 -7,159 -95,214c-105,66 -105,67 -105,172c0,50 5,99 10,110c12,22 74,27 87,7c4,-7 10,-47 13,-88l5,-75l35,0c33,0 35,2 41,40c4,22 3,71 -1,110c-12,96 -34,115 -133,115c-40,0 -80,-5 -90,-11z" id="svg_12"/>
   <path d="m3480,1112c-45,-46 -52,-105 -48,-434c3,-247 6,-299 20,-330c23,-52 65,-71 146,-66c55,4 68,8 88,31c13,15 28,44 34,65c15,54 24,429 12,558c-16,175 -38,204 -158,204c-58,0 -69,-3 -94,-28zm150,-97c11,-24 14,-81 13,-301c0,-306 -4,-327 -61,-332c-56,-6 -62,24 -62,333c0,309 6,339 62,333c25,-2 36,-10 48,-33z" id="svg_13"/>
   <path d="m2952,713l3,-418l45,0l45,0l5,135l5,135l68,5c77,6 99,22 117,88c28,106 20,355 -14,420c-22,42 -55,52 -172,52l-104,0l2,-417zm174,319c27,-17 34,-56 34,-177c0,-87 -4,-136 -14,-160c-14,-32 -19,-35 -55,-35l-41,0l0,183c0,101 3,187 7,190c9,9 55,9 69,-1z" id="svg_14"/>
   <path d="m3880,1086l0,-45l48,-3l47,-3l5,-370l5,-370l43,-3l42,-3l0,369c0,412 -6,382 71,382l39,0l0,45l0,45l-150,0l-150,0l0,-44z" id="svg_15"/>
   <path d="m4320,1085l0,-45l39,0c77,0 71,30 71,-382l0,-369l43,3l42,3l5,370l5,370l48,3l47,3l0,45l0,44l-150,0l-150,0l0,-45z" id="svg_16"/>
   <path d="m4792,713l3,-418l123,-3l122,-3l0,50l0,50l-77,3l-78,3l-3,137l-3,138l81,0l80,0l0,45l0,45l-64,0c-101,0 -96,-7 -96,140c0,147 -5,140 101,140l69,0l0,45l0,45l-130,0l-130,0l2,-417z" id="svg_17"/>
   <path d="m5232,713l3,-418l42,-3l43,-3l2,178l3,178l31,3c59,6 67,-17 80,-223c8,-137 7,-135 61,-135l45,0l-7,88c-12,169 -26,267 -42,291c-14,21 -14,25 0,33c29,16 42,79 42,203c-1,99 -4,127 -20,160c-28,56 -52,65 -178,65l-107,0l2,-417zm188,307c18,-18 20,-33 20,-129c0,-130 -11,-153 -76,-155l-39,-1l-3,140c-1,76 0,145 2,152c8,21 73,16 96,-7z" id="svg_18"/>
   <path d="m382,994c-41,-34 -50,-139 -16,-205c38,-77 307,-108 381,-45c53,46 26,116 -71,180c-110,73 -249,106 -294,70zm121,-29c78,-20 148,-57 196,-103c48,-46 52,-74 14,-99c-37,-25 -178,-24 -251,1c-66,22 -84,53 -80,134c3,49 6,58 28,69c31,16 25,16 93,-2z" id="svg_19"/>
   <path d="m2258,895c-10,-22 -25,-69 -33,-105c-20,-79 -68,-180 -101,-211c-13,-12 -40,-25 -60,-28c-51,-8 -55,-29 -7,-33l38,-3l3,-80c5,-132 12,-125 -126,-125c-112,0 -142,-7 -142,-32c0,-4 59,-8 130,-8c172,0 170,-1 170,151c0,107 1,111 30,147c16,20 41,62 55,93c31,70 67,209 63,246c-3,27 -4,27 -20,-12z" id="svg_20"/>
  </g>
  <path d="m38.55,116.7c0,0 0.64,-2.34 0.64,-2.34c0,0 3.09,-1.81 3.09,-1.81c0,0 1.6,-0.53 1.55,-0.53c-0.04,0 3.34,0.64 3.3,0.53c-0.04,-0.11 8.34,2.55 8.34,2.55c0,0 4.36,1.91 4.36,1.91c0,0 5,2.77 5,2.77c0,0 3.51,2.66 3.51,2.66c0,0 3.51,3.4 3.51,3.4c0,0 1.6,2.34 1.6,2.34c0,0 0.53,1.91 0.53,1.91c0,0 -0.64,1.7 -0.64,1.7c0,0 -1.28,1.28 -1.28,1.28c0,0 -1.91,1.28 -1.91,1.28c0,0 -4.36,0.85 -4.36,0.85c0,0 -4.68,0.32 -4.72,0.21c-0.04,-0.11 -2.83,0 -2.87,0c-0.04,0 -4.32,-0.32 -4.36,-0.32c-0.04,0 -6.87,-1.28 -6.91,-1.38c-0.04,-0.11 -4.53,-1.7 -4.57,-1.7c-0.04,0 -2.83,-2.98 -2.83,-2.98c0,0 -1.17,-3.4 -1.17,-3.4c0,0 -0.32,-3.94 -0.32,-3.94c0,0 0.53,-5 0.53,-5z" fill="#0891b2" id="svg_24" stroke="#000000"/>
 </g>

</svg>